{"title":"Priest.2011.FRENCH.BRRiP.LD.XViD-STVFRV","uid":6563798,"size":733194240,"categoryP":"video","categoryS":"movies","magnet":"?xt=urn:btih:be9498de7761ccf2ced3201a471ac6925cd9d55b&amp;dn=Priest.2011.FRENCH.BRRiP.LD.XViD-STVFRV&amp;tr=udp%3A%2F%2Ftracker.openbittorrent.com%3A80&amp;tr=udp%3A%2F%2Fopen.demonii.com%3A1337&amp;tr=udp%3A%2F%2Ftracker.coppersurfer.tk%3A6969&amp;tr=udp%3A%2F%2Fexodus.desync.com%3A6969","seeders":0,"leechers":1,"uploader":"les-stefs79","files":1,"time":1311591312,"description":" &lt;a href=&quot;http://images.allocine.fr/medias/nmedia/18/78/60/34/19697027.jpg&quot; rel=&quot;nofollow&quot; target=&quot;_NEW&quot;&gt;http://images.allocine.fr/medias/nmedia/18/78/60/34/19697027.jpg&lt;/a&gt;\n\nSAMPLE :\n\nOrigine du film : U.S.A.\nRÃƒÂ©alisateur : Scott Charles Stewart\nActeurs : Paul Bettany, Karl Urban, Cam Gigandet, Maggie Q, Lily Collins\nGenre : Aventure, Epouvante-horreur, Science fiction\nDurÃƒÂ©e : 1h27min\nDate de sortie : 11 Mai 2011\nAnnÃƒÂ©e de production : 2011\nTitre Original : Priest\n\nDans un monde ravagÃƒÂ© par des siÃƒÂ¨cles de guerre entre l'homme et les vampires, un prÃƒÂªtre guerrier se retourne contre l'ÃƒÂ©glise afin de traquer une bande de vampires meurtriers qui ont kidnappÃƒÂ© sa niÃƒÂ¨ce.\n\n\nVideo\nID : 0\nFormat : MPEG-4 Visual\nFormat profile : Advanced Simple@L5\nFormat settings, BVOP : 2\nFormat settings, QPel : No\nFormat settings, GMC : No warppoints\nFormat settings, Matrix : Default (H.263)\nMuxing mode : Packed bitstream\nCodec ID : XVID\nCodec ID/Hint : XviD\nDuration : 1h 23mn\nBit rate : 1 030 Kbps\nWidth : 640 pixels\nHeight : 272 pixels\nDisplay aspect ratio : 2.35:1\nFrame rate : 23.976 fps\nColor space : YUV\nChroma subsampling : 4:2:0\nBit depth : 8 bits\nScan type : Progressive\nCompression mode : Lossy\nBits/(Pixel*Frame) : 0.247\nStream size : 617 MiB (88%)\nWriting library : XviD 1.1.2 (UTC 2006-11-01)\n\nAudio\nID : 1\nFormat : MPEG Audio\nFormat version : Version 1\nFormat profile : Layer 3\nCodec ID : 55\nCodec ID/Hint : MP3\nDuration : 1h 23mn\nBit rate mode : Variable\nBit rate : 124 Kbps\nChannel(s) : 2 channels\nSampling rate : 48.0 KHz\nCompression mode : Lossy\nStream size : 74.4 MiB (11%)\nAlignment : Aligned on interleaves\nInterleave, duration : 24 ms (0.58 video frame)\nInterleave, preload duration : 360 ms","torrent":{"xt":"urn:btih:be9498de7761ccf2ced3201a471ac6925cd9d55b","amp;dn":"Priest.2011.FRENCH.BRRiP.LD.XViD-STVFRV","amp;tr":["udp%3A%2F%2Ftracker.openbittorrent.com%3A80","udp%3A%2F%2Fopen.demonii.com%3A1337","udp%3A%2F%2Ftracker.coppersurfer.tk%3A6969","udp%3A%2F%2Fexodus.desync.com%3A6969"],"infoHash":"be9498de7761ccf2ced3201a471ac6925cd9d55b","infoHashBuffer":{"type":"Buffer","data":[190,148,152,222,119,97,204,242,206,211,32,26,71,26,198,146,92,217,213,91]},"announce":[],"urlList":[]}}